<?xml version="1.0" encoding="UTF-8" standalone="no"?>
<!-- Created with Inkscape (http://www.inkscape.org/) -->

<svg
   xmlns:osb="http://www.openswatchbook.org/uri/2009/osb"
   xmlns:dc="http://purl.org/dc/elements/1.1/"
   xmlns:cc="http://creativecommons.org/ns#"
   xmlns:rdf="http://www.w3.org/1999/02/22-rdf-syntax-ns#"
   xmlns:svg="http://www.w3.org/2000/svg"
   xmlns="http://www.w3.org/2000/svg"
   xmlns:xlink="http://www.w3.org/1999/xlink"
   xmlns:sodipodi="http://sodipodi.sourceforge.net/DTD/sodipodi-0.dtd"
   xmlns:inkscape="http://www.inkscape.org/namespaces/inkscape"
   id="svg5388"
   version="1.1"
   inkscape:version="0.91 r13725"
   width="120"
   height="39.299999"
   viewBox="0 0 120 39.299999"
   sodipodi:docname="btn_web_app.svg">
  <metadata
     id="metadata5394">
    <rdf:RDF>
      <cc:Work
         rdf:about="">
        <dc:format>image/svg+xml</dc:format>
        <dc:type
           rdf:resource="http://purl.org/dc/dcmitype/StillImage" />
        <dc:title></dc:title>
      </cc:Work>
    </rdf:RDF>
  </metadata>
  <defs
     id="defs5392">
    <linearGradient
       gradientTransform="matrix(1.0776803,0,0,1.0776803,36.272905,-7.1244628)"
       inkscape:collect="always"
       xlink:href="#linearGradient6830"
       id="linearGradient6834"
       x1="1.7796631"
       y1="70"
       x2="138.22034"
       y2="70"
       gradientUnits="userSpaceOnUse" />
    <linearGradient
       id="linearGradient6830"
       osb:paint="solid">
      <stop
         style="stop-color:#49b4c2;stop-opacity:1;"
         offset="0"
         id="stop6832" />
    </linearGradient>
  </defs>
  <sodipodi:namedview
     pagecolor="#ada9a9"
     bordercolor="#666666"
     borderopacity="1"
     objecttolerance="10"
     gridtolerance="10"
     guidetolerance="10"
     inkscape:pageopacity="0"
     inkscape:pageshadow="2"
     inkscape:window-width="1600"
     inkscape:window-height="837"
     id="namedview5390"
     showgrid="false"
     inkscape:zoom="7.1653487"
     inkscape:cx="38.494933"
     inkscape:cy="17.178473"
     inkscape:window-x="1912"
     inkscape:window-y="382"
     inkscape:window-maximized="1"
     inkscape:current-layer="text6101"
     showguides="false">
    <sodipodi:guide
       position="48.985753,69.222032"
       orientation="-0.70710678,0.70710678"
       id="guide6105" />
  </sodipodi:namedview>
  <g
     inkscape:groupmode="layer"
     id="layer3"
     inkscape:label="Gplay"
     sodipodi:insensitive="true"
     style="display:none">
    <image
       sodipodi:absref="C:\Users\Eron\Workspace\feedpresso\landing_page\public\images\google-play-badge.png"
       xlink:href="google-play-badge.png"
       y="2.3706055e-007"
       x="0"
       id="image5396"
       preserveAspectRatio="none"
       height="39.299999"
       width="120" />
  </g>
  <g
     inkscape:groupmode="layer"
     id="layer5"
     inkscape:label="Background"
     style="opacity:1"
     sodipodi:insensitive="true">
    <rect
       style="display:inline;opacity:1;fill:#000000;fill-opacity:1;stroke:none;stroke-width:1.29999995;stroke-linecap:round;stroke-linejoin:miter;stroke-miterlimit:4;stroke-dasharray:none;stroke-opacity:1"
       id="rect5938"
       width="113.19188"
       height="33.363228"
       x="3.4848816"
       y="2.8705642"
       ry="4.5" />
  </g>
  <g
     inkscape:groupmode="layer"
     id="layer1"
     inkscape:label="Content"
     style="display:inline;opacity:1">
    <g
       style="font-style:normal;font-weight:normal;font-size:18.30051231px;line-height:256.99999332%;font-family:sans-serif;letter-spacing:0px;word-spacing:0px;fill:#000000;fill-opacity:1;stroke:none;stroke-width:1px;stroke-linecap:butt;stroke-linejoin:miter;stroke-opacity:1"
       id="text6101">
      <path
         d="m 41.86395,13.691765 0,-6.0188176 0.569936,0 0,5.5940876 1.713439,0 0,0.42473 -2.283375,0 z"
         style="font-style:normal;font-variant:normal;font-weight:300;font-stretch:normal;font-size:7.43458271px;font-family:oswald;-inkscape-font-specification:'oswald Light';fill:#ffffff"
         id="path4766" />
      <path
         d="m 45.34528,13.760738 q -0.377537,0 -0.620758,-0.275893 -0.243222,-0.279523 -0.243222,-0.689732 0,-0.214179 0.0363,-0.381167 0.0363,-0.170618 0.134316,-0.319455 0.101645,-0.148837 0.21781,-0.261372 0.119796,-0.116165 0.337606,-0.243221 0.21781,-0.130686 0.43562,-0.239591 0.21781,-0.108905 0.569936,-0.265002 l 0,-0.308565 q 0,-0.591717 -0.112535,-0.813157 -0.112535,-0.2250704 -0.421099,-0.2250704 -0.595348,0 -0.595348,0.7369244 l 0,0.156097 -0.537265,-0.01815 q 0,-0.105275 0.0036,-0.130686 0.02541,-0.606238 0.315824,-0.8785006 0.290413,-0.2758927 0.842199,-0.2758927 0.569936,0 0.809527,0.3376056 0.239591,0.3376057 0.239591,1.0817897 l 0,2.090977 q 0,0.519113 0.03993,0.853089 l -0.482812,0 -0.07986,-0.595348 q -0.09801,0.283153 -0.333975,0.475552 -0.232331,0.188769 -0.555416,0.188769 z m 0.177878,-0.468292 q 0.21781,0 0.399319,-0.148836 0.185138,-0.152467 0.290413,-0.359387 l 0,-1.339532 q -0.02178,0.01089 -0.06897,0.0363 -0.177878,0.09438 -0.272263,0.145207 -0.09438,0.05082 -0.2287,0.127055 -0.130686,0.07623 -0.196029,0.127056 -0.06534,0.05082 -0.152467,0.123426 -0.08349,0.0726 -0.123426,0.137946 -0.0363,0.06171 -0.07623,0.145207 -0.03993,0.08349 -0.05445,0.177878 -0.01452,0.09075 -0.01452,0.20329 0,0.315824 0.141577,0.471921 0.141577,0.152467 0.355756,0.152467 z"
         style="font-style:normal;font-variant:normal;font-weight:300;font-stretch:normal;font-size:7.43458271px;font-family:oswald;-inkscape-font-specification:'oswald Light';fill:#ffffff"
         id="path4768" />
      <path
         d="m 48.180441,13.757108 q -0.323085,0 -0.493703,-0.239591 -0.170618,-0.239591 -0.170618,-0.678841 l 0,-3.4450293 0.548155,0 0,3.3324933 q 0,0.326715 0.09801,0.464662 0.09801,0.137946 0.308564,0.137946 0.366647,0 0.762335,-0.421099 l 0,-3.5140023 0.544525,0 0,4.2981183 -0.544525,0 0,-0.475552 q -0.479182,0.540895 -1.052748,0.540895 z"
         style="font-style:normal;font-variant:normal;font-weight:300;font-stretch:normal;font-size:7.43458271px;font-family:oswald;-inkscape-font-specification:'oswald Light';fill:#ffffff"
         id="path4770" />
      <path
         d="m 50.612653,13.691765 0,-4.2981183 0.544526,0 0,0.4465106 q 0.475551,-0.5118536 1.034597,-0.5118536 0.319455,0 0.490073,0.239591 0.170618,0.2359609 0.170618,0.6752113 l 0,3.448659 -0.544525,0 0,-3.332494 q 0,-0.326715 -0.101645,-0.4646612 -0.09801,-0.1379464 -0.308564,-0.1379464 -0.352127,0 -0.740554,0.3956886 l 0,3.539413 -0.544526,0 z"
         style="font-style:normal;font-variant:normal;font-weight:300;font-stretch:normal;font-size:7.43458271px;font-family:oswald;-inkscape-font-specification:'oswald Light';fill:#ffffff"
         id="path4772" />
      <path
         d="m 54.732893,13.760738 q -0.294043,0 -0.504593,-0.08712 -0.21055,-0.08712 -0.333976,-0.22507 -0.123425,-0.141577 -0.196029,-0.370277 -0.06897,-0.228701 -0.09438,-0.461032 -0.02178,-0.235961 -0.02178,-0.555415 l 0,-1.001926 q 0,-0.468292 0.05082,-0.776856 0.05082,-0.3121947 0.177879,-0.5336349 0.130686,-0.2214402 0.352126,-0.3194547 0.22507,-0.1016447 0.566306,-0.1016447 0.268632,0 0.464661,0.065343 0.196029,0.065343 0.315825,0.1815084 0.123426,0.1125352 0.192399,0.2904134 0.0726,0.1778785 0.09801,0.3775375 0.02904,0.196029 0.02904,0.461031 l 0,0.203289 -0.504594,0 0,-0.203289 q 0,-0.551785 -0.130686,-0.7587049 -0.130686,-0.2105497 -0.457401,-0.2105497 -0.370277,0 -0.490072,0.2650022 -0.119796,0.2613724 -0.119796,0.9692544 l 0,1.205216 q 0,0.66069 0.127056,0.918432 0.130686,0.257742 0.486442,0.257742 0.152467,0 0.257742,-0.04356 0.105275,-0.04356 0.166988,-0.119795 0.06534,-0.07623 0.101645,-0.21055 0.0363,-0.134316 0.04719,-0.283153 0.01089,-0.152467 0.01089,-0.381168 l 0,-0.235961 0.504594,0 0,0.21055 q 0,0.283153 -0.02541,0.490073 -0.02178,0.206919 -0.09438,0.402948 -0.06897,0.192399 -0.188769,0.315825 -0.116165,0.119795 -0.315824,0.192399 -0.199659,0.0726 -0.471922,0.0726 z"
         style="font-style:normal;font-variant:normal;font-weight:300;font-stretch:normal;font-size:7.43458271px;font-family:oswald;-inkscape-font-specification:'oswald Light';fill:#ffffff"
         id="path4774" />
      <path
         d="m 56.562497,13.691765 0,-6.0188176 0.544525,0 0,2.1744702 q 0.482813,-0.5191139 1.041858,-0.5191139 0.323085,0 0.493703,0.239591 0.170618,0.2359609 0.170618,0.6752113 l 0,3.448659 -0.548155,0 0,-3.332494 q 0,-0.326715 -0.09801,-0.4646612 -0.09801,-0.1379464 -0.308564,-0.1379464 -0.352126,0 -0.751445,0.3993186 l 0,3.535783 -0.544525,0 z"
         style="font-style:normal;font-variant:normal;font-weight:300;font-stretch:normal;font-size:7.43458271px;font-family:oswald;-inkscape-font-specification:'oswald Light';fill:#ffffff"
         id="path4776" />
      <path
         d="m 62.160215,13.746217 q -0.43925,0 -0.606238,-0.239591 -0.166987,-0.243221 -0.170617,-0.707882 l 0,-3.0420806 -0.519114,0 0,-0.3630167 0.519114,0 0,-1.3286412 0.544525,0 0,1.3286412 0.715143,0 0,0.3630167 -0.715143,0 0,2.9912576 q 0,0.326715 0.07623,0.450141 0.07623,0.119796 0.308564,0.119796 0.148837,0 0.304934,-0.02904 l 0,0.410209 q -0.243221,0.04719 -0.457401,0.04719 z"
         style="font-style:normal;font-variant:normal;font-weight:300;font-stretch:normal;font-size:7.43458271px;font-family:oswald;-inkscape-font-specification:'oswald Light';fill:#ffffff"
         id="path4778" />
      <path
         d="m 63.227485,13.691765 0,-6.0188176 0.544525,0 0,2.1744702 q 0.482812,-0.5191139 1.041858,-0.5191139 0.323085,0 0.493703,0.239591 0.170618,0.2359609 0.170618,0.6752113 l 0,3.448659 -0.548156,0 0,-3.332494 q 0,-0.326715 -0.09801,-0.4646612 -0.09802,-0.1379464 -0.308564,-0.1379464 -0.352127,0 -0.751445,0.3993186 l 0,3.535783 -0.544525,0 z"
         style="font-style:normal;font-variant:normal;font-weight:300;font-stretch:normal;font-size:7.43458271px;font-family:oswald;-inkscape-font-specification:'oswald Light';fill:#ffffff"
         id="path4780" />
      <path
         d="m 67.362244,13.760738 q -0.617128,0 -0.889391,-0.381168 -0.272262,-0.381167 -0.272262,-1.30323 l 0,-1.08542 q 0,-0.628019 0.127056,-0.9946655 0.130686,-0.3702771 0.377537,-0.5191139 0.250481,-0.1488369 0.66069,-0.1488369 0.272263,0 0.464662,0.072603 0.192399,0.068973 0.319455,0.1996592 0.127055,0.1306861 0.199659,0.3557564 0.07623,0.2214404 0.105275,0.4937024 0.02904,0.268633 0.02904,0.6498 l -0.0036,0.388428 -1.73522,0 0,0.64254 q 0,0.667951 0.127056,0.943843 0.130686,0.275893 0.486442,0.275893 0.283153,0 0.43562,-0.177878 0.152467,-0.181508 0.152467,-0.65343 l 0,-0.297674 0.533635,0 0,0.239591 q 0,0.624389 -0.261372,0.961994 -0.261372,0.337606 -0.85672,0.337606 z m -0.617128,-2.584679 1.201585,0 0,-0.355757 q 0,-0.22507 -0.01089,-0.373907 -0.01089,-0.148837 -0.04719,-0.294043 -0.03267,-0.148837 -0.09439,-0.232331 -0.06171,-0.083494 -0.170618,-0.1343162 -0.108905,-0.050822 -0.261372,-0.050822 -0.344866,0 -0.482812,0.2395911 -0.134316,0.2395915 -0.134316,0.9111715 l 0,0.290414 z"
         style="font-style:normal;font-variant:normal;font-weight:300;font-stretch:normal;font-size:7.43458271px;font-family:oswald;-inkscape-font-specification:'oswald Light';fill:#ffffff"
         id="path4782" />
    </g>
    <g
       style="font-style:normal;font-weight:normal;font-size:16.27470779px;line-height:256.99999332%;font-family:sans-serif;letter-spacing:0px;word-spacing:0px;fill:#000000;fill-opacity:1;stroke:none;stroke-width:1px;stroke-linecap:butt;stroke-linejoin:miter;stroke-opacity:1"
       id="text6109">
      <path
         d="m 44.010141,29.443264 -1.883352,-13.17552 2.018445,0 1.080742,8.494952 1.406555,-8.494952 1.613166,0 1.438341,8.502899 1.080743,-8.502899 1.978712,0 -1.883353,13.17552 -1.915139,0 -1.48602,-8.796925 -1.478074,8.796925 -1.970766,0 z"
         style="font-style:normal;font-variant:normal;font-weight:500;font-stretch:normal;font-family:Oswald;-inkscape-font-specification:'Oswald Medium';fill:#ffffff"
         id="path4753" />
      <path
         d="m 56.049293,23.73758 1.60522,0 0,-0.897969 q 0,-0.715198 -0.182773,-1.025116 -0.174826,-0.309919 -0.627784,-0.309919 -0.460905,0 -0.627784,0.349652 -0.166879,0.349652 -0.166879,1.271461 l 0,0.611891 z m 0.818503,5.85667 q -1.613167,0 -2.320417,-0.890023 -0.707251,-0.890023 -0.707251,-2.630336 l 0,-2.662123 q 0,-1.740313 0.715197,-2.630336 0.715197,-0.890023 2.304524,-0.890023 0.842344,0 1.414501,0.246346 0.580105,0.246345 0.89797,0.746983 0.325812,0.500638 0.460905,1.160209 0.135093,0.651624 0.135093,1.573434 l 0,1.231728 -3.719025,0 0,1.414501 q 0,0.294026 0,0.460905 0.0079,0.158933 0.03179,0.389385 0.02384,0.230452 0.07152,0.357599 0.05563,0.127146 0.143039,0.262239 0.08741,0.127146 0.230453,0.182772 0.143039,0.05563 0.333758,0.05563 0.445012,0 0.619838,-0.309919 0.174826,-0.317866 0.174826,-0.913863 l 0,-0.540371 2.105858,0 0,0.373492 q 0,1.46218 -0.73109,2.240951 -0.723144,0.770823 -2.161485,0.770823 z"
         style="font-style:normal;font-variant:normal;font-weight:500;font-stretch:normal;font-family:Oswald;-inkscape-font-specification:'Oswald Medium';fill:#ffffff"
         id="path4755" />
      <path
         d="m 64.528353,27.996976 q 0.246346,0 0.405278,-0.135092 0.16688,-0.135093 0.238399,-0.405279 0.07947,-0.270185 0.103307,-0.548317 0.02384,-0.278133 0.02384,-0.683411 l 0,-3.242227 q 0,-0.333759 -0.03179,-0.588051 -0.03179,-0.254292 -0.119199,-0.484745 -0.08741,-0.238399 -0.262239,-0.357598 -0.16688,-0.127146 -0.413225,-0.1192 -0.452959,0.0079 -0.929757,0.365545 l 0,5.90435 q 0.452959,0.294025 0.985383,0.294025 z m 0.770824,1.597274 q -0.882077,0 -1.756207,-0.842343 l 0,0.691357 -2.225057,0 0,-13.17552 2.225057,0 0,4.481902 q 0.866184,-0.866183 1.899246,-0.858237 0.500638,0.0079 0.882076,0.230453 0.389386,0.222505 0.603945,0.556264 0.222505,0.325812 0.357598,0.77877 0.14304,0.445012 0.190719,0.834397 0.04768,0.381438 0.04768,0.77877 l 0,3.083294 q 0,0.715197 -0.119199,1.319142 -0.1192,0.595997 -0.373492,1.088689 -0.254292,0.484744 -0.699304,0.762876 -0.437065,0.270186 -1.033062,0.270186 z"
         style="font-style:normal;font-variant:normal;font-weight:500;font-stretch:normal;font-family:Oswald;-inkscape-font-specification:'Oswald Medium';fill:#ffffff"
         id="path4757" />
      <path
         d="m 75.566228,24.818323 1.764153,0 -0.882077,-5.411659 -0.882076,5.411659 z m -3.059454,4.624941 2.678016,-13.17552 2.503189,0 2.67007,13.17552 -2.233005,0 -0.532424,-3.059454 -2.280684,0 -0.540371,3.059454 -2.264791,0 z"
         style="font-style:normal;font-variant:normal;font-weight:500;font-stretch:normal;font-family:Oswald;-inkscape-font-specification:'Oswald Medium';fill:#ffffff"
         id="path4759" />
      <path
         d="m 84.712803,27.996976 q 0.246345,0 0.413225,-0.135092 0.166879,-0.14304 0.238399,-0.405279 0.07947,-0.270185 0.103306,-0.548317 0.03179,-0.286079 0.03179,-0.683411 l 0,-3.242227 q 0,-0.325812 -0.03973,-0.580104 -0.03179,-0.262239 -0.119199,-0.492692 -0.08741,-0.238399 -0.262239,-0.357598 -0.174826,-0.127146 -0.421172,-0.1192 -0.437065,0.0079 -0.921809,0.373492 l 0,5.896403 q 0.476798,0.294025 0.977436,0.294025 z m -3.202494,4.545476 0,-12.508003 2.225058,0 0,0.723143 q 0.874129,-0.874129 1.899245,-0.866183 0.500638,0.0079 0.882077,0.230453 0.389385,0.222505 0.603944,0.556264 0.222506,0.325812 0.357598,0.77877 0.14304,0.445012 0.19072,0.834397 0.04768,0.381438 0.04768,0.77877 l 0,3.083294 q 0,0.715197 -0.1192,1.319142 -0.1192,0.595997 -0.373492,1.088689 -0.254292,0.484744 -0.699304,0.762876 -0.437065,0.270186 -1.033062,0.270186 -0.87413,0 -1.756206,-0.85029 l 0,3.798492 -2.225058,0 z"
         style="font-style:normal;font-variant:normal;font-weight:500;font-stretch:normal;font-family:Oswald;-inkscape-font-specification:'Oswald Medium';fill:#ffffff"
         id="path4761" />
      <path
         d="m 92.468719,27.996976 q 0.246346,0 0.413225,-0.135092 0.16688,-0.14304 0.238399,-0.405279 0.07947,-0.270185 0.103306,-0.548317 0.03179,-0.286079 0.03179,-0.683411 l 0,-3.242227 q 0,-0.325812 -0.03973,-0.580104 -0.03179,-0.262239 -0.1192,-0.492692 -0.08741,-0.238399 -0.262239,-0.357598 -0.174826,-0.127146 -0.421171,-0.1192 -0.437065,0.0079 -0.92181,0.373492 l 0,5.896403 q 0.476798,0.294025 0.977436,0.294025 z m -3.202494,4.545476 0,-12.508003 2.225058,0 0,0.723143 q 0.87413,-0.874129 1.899246,-0.866183 0.500638,0.0079 0.882076,0.230453 0.389385,0.222505 0.603944,0.556264 0.222506,0.325812 0.357599,0.77877 0.143039,0.445012 0.190719,0.834397 0.04768,0.381438 0.04768,0.77877 l 0,3.083294 q 0,0.715197 -0.119199,1.319142 -0.1192,0.595997 -0.373492,1.088689 -0.254293,0.484744 -0.699304,0.762876 -0.437065,0.270186 -1.033063,0.270186 -0.874129,0 -1.756206,-0.85029 l 0,3.798492 -2.225058,0 z"
         style="font-style:normal;font-variant:normal;font-weight:500;font-stretch:normal;font-family:Oswald;-inkscape-font-specification:'Oswald Medium';fill:#ffffff"
         id="path4763" />
    </g>
  </g>
  <g
     inkscape:groupmode="layer"
     id="layer4"
     inkscape:label="Ribbon">
    <path
       style="display:inline;opacity:1;fill:#49b4c2;fill-opacity:1;stroke:none;stroke-width:1.29999995;stroke-linecap:round;stroke-linejoin:miter;stroke-miterlimit:4;stroke-dasharray:none;stroke-opacity:1"
       d="m 94.617188,2.8710942 22.060542,18.4999998 0,-10.746094 -9.24609,-7.7539058 -12.814452,0 z"
       id="rect5938-2"
       inkscape:connector-curvature="0" />
    <g
       transform="matrix(0.76625736,0.64253378,-0.64253378,0.76625736,0,0)"
       style="font-style:normal;font-weight:normal;font-size:5.17753887px;line-height:256.99999332%;font-family:sans-serif;letter-spacing:0px;word-spacing:0px;display:inline;opacity:1;fill:#ffffff;fill-opacity:1;stroke:none;stroke-width:1px;stroke-linecap:butt;stroke-linejoin:miter;stroke-opacity:1"
       id="text5964">
      <path
         d="m 85.532318,-60.617947 0,-4.191581 0.525844,0 1.026406,2.373881 0,-2.373881 0.632024,0 0,4.191581 -0.500563,0 -1.036519,-2.49523 0,2.49523 -0.647192,0 z"
         style="font-style:normal;font-variant:normal;font-weight:500;font-stretch:normal;font-family:Oswald;-inkscape-font-specification:'Oswald Medium';fill:#ffffff"
         id="path4746" />
      <path
         d="m 88.34356,-60.617947 0,-4.191581 1.754498,0 0,0.538484 -0.991014,0 0,1.203373 0.78371,0 0,0.538484 -0.78371,0 0,1.382868 1.003654,0 0,0.528372 -1.767138,0 z"
         style="font-style:normal;font-variant:normal;font-weight:500;font-stretch:normal;font-family:Oswald;-inkscape-font-specification:'Oswald Medium';fill:#ffffff"
         id="path4748" />
      <path
         d="m 91.003116,-60.617947 -0.599159,-4.191581 0.642136,0 0.343821,2.702533 0.447473,-2.702533 0.513203,0 0.457586,2.705061 0.343821,-2.705061 0.629495,0 -0.599158,4.191581 -0.609271,0 -0.472754,-2.798601 -0.470226,2.798601 -0.626967,0 z"
         style="font-style:normal;font-variant:normal;font-weight:500;font-stretch:normal;font-family:Oswald;-inkscape-font-specification:'Oswald Medium';fill:#ffffff"
         id="path4750" />
    </g>
    <g
       id="g6924"
       transform="matrix(0.1580117,0,0,0.1580117,2.2423274,9.0497012)">
      <g
         id="g6952"
         transform="translate(19.131978,-5.2993757)">
        <circle
           style="display:inline;opacity:1;fill:url(#linearGradient6834);fill-opacity:1;stroke:none;stroke-width:1.29999995;stroke-linecap:round;stroke-linejoin:miter;stroke-miterlimit:4;stroke-dasharray:none;stroke-opacity:1"
           id="path6679"
           cx="111.71053"
           cy="68.313156"
           r="73.519714" />
        <rect
           style="display:inline;opacity:1;fill:#ffffff;fill-opacity:1;stroke:none;stroke-width:1.29999995;stroke-linecap:round;stroke-linejoin:miter;stroke-miterlimit:4;stroke-dasharray:none;stroke-opacity:1"
           id="rect6759"
           width="78.44091"
           height="52.328899"
           x="64.466782"
           y="36.06731"
           ry="4.3857422" />
        <rect
           style="display:inline;opacity:1;fill:#49b4c2;fill-opacity:1;stroke:none;stroke-width:1.29999995;stroke-linecap:round;stroke-linejoin:miter;stroke-miterlimit:4;stroke-dasharray:none;stroke-opacity:1"
           id="rect6761"
           width="67.534691"
           height="36.284164"
           x="69.919891"
           y="41.835026" />
        <circle
           style="display:inline;opacity:1;fill:#49b4c2;fill-opacity:1;stroke:none;stroke-width:1.29999995;stroke-linecap:round;stroke-linejoin:miter;stroke-miterlimit:4;stroke-dasharray:none;stroke-opacity:1"
           id="path6778"
           cx="103.68723"
           cy="83.291969"
           r="2.2616525" />
        <path
           style="display:inline;opacity:1;fill:#ffffff;fill-opacity:1;stroke:none;stroke-width:1.29999995;stroke-linecap:round;stroke-linejoin:miter;stroke-miterlimit:4;stroke-dasharray:none;stroke-opacity:1"
           d="m 95.437235,90.485032 c 0,3.559322 -0.213004,6.167646 -4.041016,7.193359 l 0,1.593746 24.582031,0 0,-1.593746 c -3.82801,-1.02572 -4.04101,-3.634039 -4.04101,-7.193359 z"
           id="rect6780"
           inkscape:connector-curvature="0"
           sodipodi:nodetypes="ccccccc" />
        <rect
           style="display:inline;opacity:1;fill:#ffffff;fill-opacity:1;stroke:#49b4c2;stroke-width:1.29999995;stroke-linecap:round;stroke-linejoin:miter;stroke-miterlimit:4;stroke-dasharray:none;stroke-opacity:1"
           id="rect6698"
           width="36.808506"
           height="48.553669"
           x="128.43597"
           y="50.643898"
           ry="4.5195227" />
        <rect
           style="display:inline;opacity:1;fill:#49b4c2;fill-opacity:1;stroke:none;stroke-width:1.29999995;stroke-linecap:round;stroke-linejoin:miter;stroke-miterlimit:4;stroke-dasharray:none;stroke-opacity:1"
           id="rect6702"
           width="30.516451"
           height="36.4939"
           x="131.582"
           y="54.523998" />
        <circle
           style="display:inline;opacity:1;fill:#49b4c2;fill-opacity:1;stroke:none;stroke-width:1.29999995;stroke-linecap:round;stroke-linejoin:miter;stroke-miterlimit:4;stroke-dasharray:none;stroke-opacity:1"
           id="path6704"
           cx="141.49199"
           cy="94.714478"
           r="2.2022181" />
        <circle
           style="display:inline;opacity:1;fill:#49b4c2;fill-opacity:1;stroke:none;stroke-width:1.29999995;stroke-linecap:round;stroke-linejoin:miter;stroke-miterlimit:4;stroke-dasharray:none;stroke-opacity:1"
           id="path6704-8"
           cx="146.86646"
           cy="94.714478"
           r="2.2022181" />
        <circle
           style="display:inline;opacity:1;fill:#49b4c2;fill-opacity:1;stroke:none;stroke-width:1.29999995;stroke-linecap:round;stroke-linejoin:miter;stroke-miterlimit:4;stroke-dasharray:none;stroke-opacity:1"
           id="path6704-8-9"
           cx="152.24091"
           cy="94.714478"
           r="2.2022181" />
        <rect
           style="display:inline;opacity:1;fill:#ffffff;fill-opacity:1;stroke:#49b4c2;stroke-width:1.36123776;stroke-linecap:round;stroke-linejoin:miter;stroke-miterlimit:4;stroke-dasharray:none;stroke-opacity:1"
           id="rect6737"
           width="20.849779"
           height="35.235374"
           x="57.906399"
           y="66.56411"
           ry="4.4921927" />
        <rect
           style="display:inline;opacity:1;fill:#49b4c2;fill-opacity:1;stroke:none;stroke-width:1.29999995;stroke-linecap:round;stroke-linejoin:miter;stroke-miterlimit:4;stroke-dasharray:none;stroke-opacity:1"
           id="rect6739"
           width="15.423729"
           height="22.245762"
           x="60.619423"
           y="72.762306" />
        <circle
           style="display:inline;opacity:1;fill:#49b4c2;fill-opacity:1;stroke:none;stroke-width:1.29999995;stroke-linecap:round;stroke-linejoin:miter;stroke-miterlimit:4;stroke-dasharray:none;stroke-opacity:1"
           id="path6741"
           cx="68.331291"
           cy="97.788788"
           r="1.5201272" />
        <circle
           style="display:inline;opacity:1;fill:#49b4c2;fill-opacity:1;stroke:none;stroke-width:1.29999995;stroke-linecap:round;stroke-linejoin:miter;stroke-miterlimit:4;stroke-dasharray:none;stroke-opacity:1"
           id="path6741-4"
           cx="68.331291"
           cy="70.166969"
           r="0.77860177" />
      </g>
    </g>
  </g>
  <g
     inkscape:groupmode="layer"
     id="layer2"
     inkscape:label="Outline"
     sodipodi:insensitive="true"
     style="display:inline">
    <rect
       style="display:inline;opacity:1;fill:none;fill-opacity:1;stroke:#ffffff;stroke-width:1.29999995;stroke-linecap:round;stroke-linejoin:miter;stroke-miterlimit:4;stroke-dasharray:none;stroke-opacity:1"
       id="rect5938-7"
       width="113.19188"
       height="33.363228"
       x="3.4848816"
       y="2.8705642"
       ry="4.5" />
  </g>
</svg>
