<?xml version="1.0" encoding="UTF-8" standalone="no"?>
<svg
   xmlns:dc="http://purl.org/dc/elements/1.1/"
   xmlns:cc="http://creativecommons.org/ns#"
   xmlns:rdf="http://www.w3.org/1999/02/22-rdf-syntax-ns#"
   xmlns:svg="http://www.w3.org/2000/svg"
   xmlns="http://www.w3.org/2000/svg"
   xmlns:sodipodi="http://sodipodi.sourceforge.net/DTD/sodipodi-0.dtd"
   xmlns:inkscape="http://www.inkscape.org/namespaces/inkscape"
   id="livetype"
   width="128"
   height="41.900002"
   viewBox="0 0 128 41.900002"
   version="1.1"
   sodipodi:docname="btn_apple_store.svg"
   inkscape:version="0.92.1 r15371">
  <metadata
     id="metadata71">
    <rdf:RDF>
      <cc:Work
         rdf:about="">
        <dc:format>image/svg+xml</dc:format>
        <dc:type
           rdf:resource="http://purl.org/dc/dcmitype/StillImage" />
        <dc:title>Download_on_the_App_Store_Badge_US-UK_RGB_blk_4SVG_092917</dc:title>
      </cc:Work>
    </rdf:RDF>
  </metadata>
  <defs
     id="defs69" />
  <sodipodi:namedview
     pagecolor="#ffffff"
     bordercolor="#666666"
     borderopacity="1"
     objecttolerance="10"
     gridtolerance="10"
     guidetolerance="10"
     inkscape:pageopacity="0"
     inkscape:pageshadow="2"
     inkscape:window-width="1920"
     inkscape:window-height="974"
     id="namedview67"
     showgrid="false"
     showborder="true"
     inkscape:pagecheckerboard="false"
     inkscape:zoom="11.331722"
     inkscape:cx="21.099694"
     inkscape:cy="19.121469"
     inkscape:window-x="-9"
     inkscape:window-y="-9"
     inkscape:window-maximized="1"
     inkscape:current-layer="livetype" />
  <title
     id="title2">Download_on_the_App_Store_Badge_US-UK_RGB_blk_4SVG_092917</title>
  <path
     inkscape:connector-curvature="0"
     id="path4"
     style="fill:#ffffff;stroke-width:0.96049845;fill-opacity:0.99000001"
     d="M 115.56352,2.9501177 H 12.441687 c -0.375892,0 -0.747273,0 -1.122171,0.0018 -0.313824,0.0018 -0.625148,0.00703 -0.941985,0.01143 A 13.546014,11.893245 0 0 0 8.3233987,3.1223861 6.8321638,5.9985615 0 0 0 6.3748694,3.6866843 6.5991661,5.7939922 0 0 0 4.7156447,4.7474749 6.4153203,5.6325777 0 0 0 3.5078902,6.2064511 6.766662,5.9410517 0 0 0 2.8672234,7.9194336 13.318696,11.693662 0 0 0 2.6835314,9.7212277 c -0.00951,0.2759391 -0.010517,0.5527963 -0.01553,0.8287713 v 20.802767 c 0.00501,0.279449 0.00602,0.550168 0.01553,0.829707 a 13.317998,11.69305 0 0 0 0.183692,1.801704 6.7526904,5.9287848 0 0 0 0.6406668,1.713864 6.3633904,5.5869839 0 0 0 1.2077545,1.452866 6.4317316,5.6469867 0 0 0 1.6592247,1.060826 6.8687895,6.0307184 0 0 0 1.9485293,0.567718 13.79242,12.109587 0 0 0 2.0541323,0.15912 c 0.316837,0.0061 0.628161,0.0096 0.941985,0.0096 0.374887,0.0018 0.7463,0.0018 1.122171,0.0018 H 115.56352 c 0.36841,0 0.74276,0 1.11117,-0.0018 0.31234,0 0.63267,-0.0035 0.94501,-0.0096 a 13.611865,11.951061 0 0 0 2.05014,-0.15912 6.9748839,6.1238681 0 0 0 1.95603,-0.567718 6.4347761,5.6496597 0 0 0 1.65774,-1.060826 6.555119,5.7553193 0 0 0 1.21122,-1.452866 6.7696757,5.9436977 0 0 0 0.63462,-1.713864 13.844996,12.155748 0 0 0 0.19025,-1.801704 c 0.004,-0.279539 0.004,-0.550258 0.004,-0.829707 0.008,-0.326969 0.008,-0.652138 0.008,-0.984417 V 11.532607 c 0,-0.329588 0,-0.656539 -0.008,-0.982608 0,-0.275975 0,-0.5528322 -0.004,-0.8288073 A 13.845682,12.156351 0 0 0 125.12945,7.9193976 6.7835859,5.9559107 0 0 0 124.49483,6.2064151 6.628278,5.8195521 0 0 0 121.62587,3.6866033 6.9371819,6.0907662 0 0 0 119.66984,3.1223051 13.370912,11.739508 0 0 0 117.6197,2.9632217 c -0.31234,-0.00439 -0.63267,-0.00967 -0.94501,-0.011421 -0.36841,-0.0018 -0.74276,-0.0018 -1.11117,-0.0018 z" />
  <path
     inkscape:connector-curvature="0"
     id="path6"
     d="m 11.672482,38.047923 c -0.310254,0 -0.613015,-0.0035 -0.920837,-0.0095 A 12.919295,11.342993 0 0 1 8.8483029,37.892537 5.9914747,5.2604461 0 0 1 7.161247,37.402685 5.5046465,4.8330165 0 0 1 5.7386841,36.49379 5.4181828,4.7571025 0 0 1 4.6995004,35.245243 5.8265613,5.1156539 0 0 1 4.1465643,33.763615 12.640657,11.098353 0 0 1 3.9770175,32.087264 c -0.00645,-0.188556 -0.014908,-0.816361 -0.014908,-0.816361 V 10.617746 c 0,0 0.009,-0.6181581 0.014959,-0.7997671 A 12.59675,11.059801 0 0 1 4.1456274,8.1442461 5.8608168,5.14573 0 0 1 4.6990318,6.6582383 5.4718166,4.8041922 0 0 1 5.7327473,5.408395 5.6672688,4.975797 0 0 1 7.160748,4.4942512 5.9296436,5.2061591 0 0 1 8.8443213,4.0079392 12.816193,11.25247 0 0 1 10.75415,3.8612607 l 0.918831,-0.010916 H 116.32204 l 0.9298,0.011355 a 12.611555,11.072801 0 0 1 1.89241,0.1453643 6.0469923,5.3091899 0 0 1 1.70148,0.4898077 5.6960969,5.0011077 0 0 1 2.45918,2.163549 5.8681179,5.1521403 0 0 1 0.545,1.4742242 13.232789,11.618236 0 0 1 0.17698,1.6872689 c 0.003,0.2531962 0.003,0.5251672 0.003,0.7958332 0.008,0.335271 0.008,0.654385 0.008,0.97612 v 18.711368 c 0,0.324809 0,0.641752 -0.008,0.961287 0,0.290746 0,0.557085 -0.004,0.831202 a 12.964222,11.382439 0 0 1 -0.17402,1.657129 5.8440148,5.1309781 0 0 1 -0.54989,1.493072 5.5805709,4.8996773 0 0 1 -1.03418,1.238891 5.5119478,4.8394269 0 0 1 -1.42501,0.914171 5.9689397,5.2406607 0 0 1 -1.69852,0.49155 12.771683,11.213391 0 0 1 -1.9034,0.14582 c -0.29826,0.006 -0.61057,0.0095 -0.91382,0.0095 l -1.10384,0.0018 z"
     style="stroke-width:0.95415622" />
  <g
     id="g4595"
     transform="matrix(0.96574446,0,0,0.96574446,2.2938161,-0.21348342)">
    <g
       transform="matrix(1.025067,0,0,1,2.6680016,0.95006576)"
       data-name="&lt;Group&gt;"
       id="_Group_">
      <g
         data-name="&lt;Group&gt;"
         id="_Group_2">
        <g
           data-name="&lt;Group&gt;"
           id="_Group_3">
          <path
             inkscape:connector-curvature="0"
             style="fill:#ffffff"
             d="m 24.76888,20.30068 a 4.94881,4.94881 0 0 1 2.35656,-4.15206 5.06566,5.06566 0 0 0 -3.99116,-2.15768 c -1.67924,-0.17626 -3.30719,1.00483 -4.1629,1.00483 -0.87227,0 -2.18977,-0.98733 -3.6085,-0.95814 a 5.31529,5.31529 0 0 0 -4.47292,2.72787 c -1.934,3.34842 -0.49141,8.26947 1.3612,10.97608 0.9269,1.32535 2.01018,2.8058 3.42763,2.7533 1.38706,-0.05753 1.9051,-0.88448 3.5794,-0.88448 1.65876,0 2.14479,0.88448 3.591,0.8511 1.48838,-0.02416 2.42613,-1.33124 3.32051,-2.66914 a 10.962,10.962 0 0 0 1.51842,-3.09251 4.78205,4.78205 0 0 1 -2.91924,-4.39917 z"
             data-name="&lt;Path&gt;"
             id="_Path_" />
          <path
             inkscape:connector-curvature="0"
             style="fill:#ffffff"
             d="m 22.03725,12.21089 a 4.87248,4.87248 0 0 0 1.11452,-3.49062 4.95746,4.95746 0 0 0 -3.20758,1.65961 4.63634,4.63634 0 0 0 -1.14371,3.36139 4.09905,4.09905 0 0 0 3.23677,-1.53038 z"
             data-name="&lt;Path&gt;"
             id="_Path_2" />
        </g>
      </g>
      <g
         id="g30">
        <path
           inkscape:connector-curvature="0"
           id="path14"
           style="fill:#ffffff"
           d="m 42.30227,27.13965 h -4.7334 l -1.13672,3.35645 h -2.00488 l 4.4834,-12.418 h 2.083 l 4.4834,12.418 H 43.438 Z M 38.0591,25.59082 h 3.752 l -1.84961,-5.44727 h -0.05176 z" />
        <path
           inkscape:connector-curvature="0"
           id="path16"
           style="fill:#ffffff"
           d="m 55.15969,25.96973 c 0,2.81348 -1.50586,4.62109 -3.77832,4.62109 a 3.0693,3.0693 0 0 1 -2.84863,-1.584 h -0.043 v 4.48438 h -1.8584 V 21.44238 h 1.79886 v 1.50586 h 0.03418 a 3.21162,3.21162 0 0 1 2.88281,-1.60059 c 2.29781,10e-6 3.8125,1.81641 3.8125,4.62208 z m -1.91016,0 c 0,-1.833 -0.94727,-3.03809 -2.39258,-3.03809 -1.41992,0 -2.375,1.23047 -2.375,3.03809 0,1.82422 0.95508,3.0459 2.375,3.0459 1.44532,0 2.39258,-1.19629 2.39258,-3.0459 z" />
        <path
           inkscape:connector-curvature="0"
           id="path18"
           style="fill:#ffffff"
           d="m 65.12453,25.96973 c 0,2.81348 -1.50586,4.62109 -3.77832,4.62109 a 3.0693,3.0693 0 0 1 -2.84863,-1.584 h -0.043 v 4.48438 h -1.8584 V 21.44238 H 58.395 v 1.50586 h 0.03418 A 3.21162,3.21162 0 0 1 61.312,21.34766 c 2.29788,0 3.81253,1.8164 3.81253,4.62207 z m -1.91016,0 c 0,-1.833 -0.94727,-3.03809 -2.39258,-3.03809 -1.41992,0 -2.375,1.23047 -2.375,3.03809 0,1.82422 0.95508,3.0459 2.375,3.0459 1.44532,0 2.39259,-1.19629 2.39259,-3.0459 z" />
        <path
           inkscape:connector-curvature="0"
           id="path20"
           style="fill:#ffffff"
           d="m 71.71047,27.03613 c 0.1377,1.23145 1.334,2.04 2.96875,2.04 1.56641,0 2.69336,-0.80859 2.69336,-1.91895 0,-0.96387 -0.67969,-1.541 -2.28906,-1.93652 l -1.60937,-0.3877 c -2.28027,-0.55078 -3.33887,-1.61719 -3.33887,-3.34766 0,-2.14258 1.86719,-3.61426 4.51855,-3.61426 2.624,0 4.42285,1.47168 4.4834,3.61426 h -1.876 c -0.1123,-1.23926 -1.13672,-1.9873 -2.63379,-1.9873 -1.49707,0 -2.52148,0.75684 -2.52148,1.8584 0,0.87793 0.6543,1.39453 2.25488,1.79 l 1.36816,0.33594 c 2.54785,0.60254 3.60645,1.626 3.60645,3.44238 0,2.32324 -1.85059,3.77832 -4.79395,3.77832 -2.75391,0 -4.61328,-1.4209 -4.7334,-3.667 z" />
        <path
           inkscape:connector-curvature="0"
           id="path22"
           style="fill:#ffffff"
           d="m 83.34621,19.2998 v 2.14258 h 1.72168 v 1.47168 h -1.72168 v 4.99121 c 0,0.77539 0.34473,1.13672 1.10156,1.13672 a 5.80752,5.80752 0 0 0 0.61133,-0.043 v 1.46289 a 5.10351,5.10351 0 0 1 -1.03223,0.08594 c -1.833,0 -2.54785,-0.68848 -2.54785,-2.44434 v -5.18942 h -1.3164 V 21.44238 H 81.479 V 19.2998 Z" />
        <path
           inkscape:connector-curvature="0"
           id="path24"
           style="fill:#ffffff"
           d="m 86.065,25.96973 c 0,-2.84863 1.67773,-4.63867 4.29395,-4.63867 2.625,0 4.29492,1.79 4.29492,4.63867 0,2.85645 -1.66113,4.63867 -4.29492,4.63867 -2.63286,0 -4.29395,-1.78223 -4.29395,-4.63867 z m 6.69531,0 c 0,-1.9541 -0.89551,-3.10742 -2.40137,-3.10742 -1.50586,0 -2.40039,1.16211 -2.40039,3.10742 0,1.96191 0.89453,3.10645 2.40039,3.10645 1.50586,0 2.40133,-1.14454 2.40133,-3.10645 z" />
        <path
           inkscape:connector-curvature="0"
           id="path26"
           style="fill:#ffffff"
           d="m 96.18606,21.44238 h 1.77246 v 1.541 h 0.043 a 2.1594,2.1594 0 0 1 2.17773,-1.63574 2.86616,2.86616 0 0 1 0.63672,0.06934 v 1.73828 a 2.59794,2.59794 0 0 0 -0.835,-0.1123 1.87264,1.87264 0 0 0 -1.93652,2.083 v 5.37012 h -1.8584 z" />
        <path
           inkscape:connector-curvature="0"
           id="path28"
           style="fill:#ffffff"
           d="m 109.3843,27.83691 c -0.25,1.64355 -1.85059,2.77148 -3.89844,2.77148 -2.63379,0 -4.26855,-1.76465 -4.26855,-4.5957 0,-2.83984 1.64355,-4.68164 4.19043,-4.68164 2.50488,0 4.08008,1.7207 4.08008,4.46582 v 0.63672 h -6.39453 v 0.1123 a 2.358,2.358 0 0 0 2.43555,2.56445 2.04834,2.04834 0 0 0 2.09082,-1.27344 z m -6.28223,-2.70215 h 4.52637 a 2.1773,2.1773 0 0 0 -2.2207,-2.29785 2.292,2.292 0 0 0 -2.30567,2.29786 z" />
      </g>
    </g>
    <g
       transform="matrix(1.025067,0,0,1,2.6680016,0.95006576)"
       id="_Group_4"
       data-name="&lt;Group&gt;">
      <g
         id="g61">
        <path
           d="m 37.82619,8.731 a 2.63964,2.63964 0 0 1 2.80762,2.96484 c 0,1.90625 -1.03027,3.002 -2.80762,3.002 H 35.67092 V 8.731 Z m -1.22852,5.123 h 1.125 a 1.87588,1.87588 0 0 0 1.96777,-2.146 1.881,1.881 0 0 0 -1.96777,-2.13379 h -1.125 z"
           style="fill:#ffffff"
           id="path35"
           inkscape:connector-curvature="0" />
        <path
           d="m 41.68068,12.44434 a 2.13323,2.13323 0 1 1 4.24707,0 2.13358,2.13358 0 1 1 -4.24707,0 z m 3.333,0 c 0,-0.97607 -0.43848,-1.54687 -1.208,-1.54687 -0.77246,0 -1.207,0.5708 -1.207,1.54688 0,0.98389 0.43457,1.55029 1.207,1.55029 0.76954,-10e-6 1.20801,-0.57032 1.20801,-1.5503 z"
           style="fill:#ffffff"
           id="path37"
           inkscape:connector-curvature="0" />
        <path
           d="m 51.57326,14.69775 h -0.92187 l -0.93066,-3.31641 h -0.07031 l -0.92676,3.31641 h -0.91309 l -1.24121,-4.50293 h 0.90137 l 0.80664,3.436 h 0.06641 l 0.92578,-3.436 h 0.85254 l 0.92578,3.436 h 0.07031 l 0.80273,-3.436 h 0.88867 z"
           style="fill:#ffffff"
           id="path39"
           inkscape:connector-curvature="0" />
        <path
           d="M 53.85354,10.19482 H 54.709 v 0.71533 h 0.06641 a 1.348,1.348 0 0 1 1.34375,-0.80225 1.46456,1.46456 0 0 1 1.55859,1.6748 v 2.915 h -0.88867 v -2.69184 c 0,-0.72363 -0.31445,-1.0835 -0.97168,-1.0835 a 1.03294,1.03294 0 0 0 -1.0752,1.14111 v 2.63428 h -0.88867 z"
           style="fill:#ffffff"
           id="path41"
           inkscape:connector-curvature="0" />
        <path
           d="m 59.09377,8.437 h 0.88867 v 6.26074 h -0.88867 z"
           style="fill:#ffffff"
           id="path43"
           inkscape:connector-curvature="0" />
        <path
           d="m 61.21779,12.44434 a 2.13346,2.13346 0 1 1 4.24756,0 2.1338,2.1338 0 1 1 -4.24756,0 z m 3.333,0 c 0,-0.97607 -0.43848,-1.54687 -1.208,-1.54687 -0.77246,0 -1.207,0.5708 -1.207,1.54688 0,0.98389 0.43457,1.55029 1.207,1.55029 0.76953,-10e-6 1.20801,-0.57032 1.20801,-1.5503 z"
           style="fill:#ffffff"
           id="path45"
           inkscape:connector-curvature="0" />
        <path
           d="m 66.4009,13.42432 c 0,-0.81055 0.60352,-1.27783 1.6748,-1.34424 l 1.21973,-0.07031 V 11.6211 c 0,-0.47559 -0.31445,-0.74414 -0.92187,-0.74414 -0.49609,0 -0.83984,0.18213 -0.93848,0.50049 h -0.86035 c 0.09082,-0.77344 0.81836,-1.26953 1.83984,-1.26953 1.12891,0 1.76563,0.562 1.76563,1.51318 v 3.07666 h -0.85547 v -0.63281 h -0.07031 a 1.515,1.515 0 0 1 -1.35254,0.707 1.36026,1.36026 0 0 1 -1.50098,-1.34763 z m 2.89453,-0.38477 v -0.37646 l -1.09961,0.07031 c -0.62012,0.0415 -0.90137,0.25244 -0.90137,0.64941 0,0.40527 0.35156,0.64111 0.835,0.64111 a 1.0615,1.0615 0 0 0 1.16598,-0.98437 z"
           style="fill:#ffffff"
           id="path47"
           inkscape:connector-curvature="0" />
        <path
           d="m 71.34816,12.44434 c 0,-1.42285 0.73145,-2.32422 1.86914,-2.32422 a 1.484,1.484 0 0 1 1.38086,0.79 h 0.06641 V 8.437 h 0.88867 v 6.26074 h -0.85156 v -0.71143 h -0.07031 a 1.56284,1.56284 0 0 1 -1.41406,0.78564 c -1.14551,5e-5 -1.86915,-0.90134 -1.86915,-2.32761 z m 0.918,0 c 0,0.95508 0.4502,1.52979 1.20313,1.52979 0.749,0 1.21191,-0.583 1.21191,-1.52588 0,-0.93848 -0.46777,-1.52979 -1.21191,-1.52979 -0.74808,0 -1.20316,0.57861 -1.20316,1.52588 z"
           style="fill:#ffffff"
           id="path49"
           inkscape:connector-curvature="0" />
        <path
           d="m 79.23,12.44434 a 2.13323,2.13323 0 1 1 4.24707,0 2.13358,2.13358 0 1 1 -4.24707,0 z m 3.333,0 c 0,-0.97607 -0.43848,-1.54687 -1.208,-1.54687 -0.77246,0 -1.207,0.5708 -1.207,1.54688 0,0.98389 0.43457,1.55029 1.207,1.55029 0.76953,-10e-6 1.208,-0.57032 1.208,-1.5503 z"
           style="fill:#ffffff"
           id="path51"
           inkscape:connector-curvature="0" />
        <path
           d="m 84.66945,10.19482 h 0.85547 v 0.71533 h 0.06641 a 1.348,1.348 0 0 1 1.34375,-0.80225 1.46456,1.46456 0 0 1 1.55859,1.6748 v 2.915 H 87.605 v -2.69184 c 0,-0.72363 -0.31445,-1.0835 -0.97168,-1.0835 a 1.03294,1.03294 0 0 0 -1.0752,1.14111 v 2.63428 h -0.88867 z"
           style="fill:#ffffff"
           id="path53"
           inkscape:connector-curvature="0" />
        <path
           d="m 93.51516,9.07373 v 1.1416 h 0.97559 v 0.74854 h -0.97559 v 2.31543 c 0,0.47168 0.19434,0.67822 0.63672,0.67822 a 2.96657,2.96657 0 0 0 0.33887,-0.02051 v 0.74023 a 2.9155,2.9155 0 0 1 -0.4834,0.04541 c -0.98828,0 -1.38184,-0.34766 -1.38184,-1.21582 v -2.543 h -0.71484 v -0.74854 h 0.71484 V 9.07373 Z"
           style="fill:#ffffff"
           id="path55"
           inkscape:connector-curvature="0" />
        <path
           d="m 95.70461,8.437 h 0.88086 v 2.48145 h 0.07031 a 1.3856,1.3856 0 0 1 1.373,-0.80664 1.48339,1.48339 0 0 1 1.55078,1.67871 v 2.90723 H 98.69 v -2.688 c 0,-0.71924 -0.335,-1.0835 -0.96289,-1.0835 a 1.05194,1.05194 0 0 0 -1.13379,1.1416 v 2.62988 h -0.88867 z"
           style="fill:#ffffff"
           id="path57"
           inkscape:connector-curvature="0" />
        <path
           d="m 104.76125,13.48193 a 1.828,1.828 0 0 1 -1.95117,1.30273 2.04531,2.04531 0 0 1 -2.08008,-2.32421 2.07685,2.07685 0 0 1 2.07617,-2.35254 c 1.25293,0 2.00879,0.856 2.00879,2.27 V 12.688 h -3.17969 v 0.0498 a 1.1902,1.1902 0 0 0 1.19922,1.29 1.07934,1.07934 0 0 0 1.07129,-0.5459 z m -3.126,-1.45117 h 2.27441 a 1.08647,1.08647 0 0 0 -1.1084,-1.1665 1.15162,1.15162 0 0 0 -1.16599,1.1665 z"
           style="fill:#ffffff"
           id="path59"
           inkscape:connector-curvature="0" />
      </g>
    </g>
  </g>
</svg>
