<?xml version="1.0" encoding="UTF-8" standalone="no"?>
<svg
   xmlns:dc="http://purl.org/dc/elements/1.1/"
   xmlns:cc="http://creativecommons.org/ns#"
   xmlns:rdf="http://www.w3.org/1999/02/22-rdf-syntax-ns#"
   xmlns:svg="http://www.w3.org/2000/svg"
   xmlns="http://www.w3.org/2000/svg"
   xmlns:sodipodi="http://sodipodi.sourceforge.net/DTD/sodipodi-0.dtd"
   xmlns:inkscape="http://www.inkscape.org/namespaces/inkscape"
   preserveAspectRatio="xMidYMid"
   width="607.82898"
   height="189.84476"
   viewBox="0 0 607.82898 189.84475"
   id="svg4445"
   version="1.1"
   inkscape:version="0.91 r"
   sodipodi:docname="Logo-Feedpresso-Whitelabel-full_on_white_bg_brown.svg"
   inkscape:export-filename="/home/ewalzel/Pictures/feedpresso/white_logo/Logo-Feedpresso-full_on_white_bg_brown.png"
   inkscape:export-xdpi="389.81"
   inkscape:export-ydpi="389.81">
  <metadata
     id="metadata4461">
    <rdf:RDF>
      <cc:Work
         rdf:about="">
        <dc:format>image/svg+xml</dc:format>
        <dc:type
           rdf:resource="http://purl.org/dc/dcmitype/StillImage" />
        <dc:title></dc:title>
      </cc:Work>
    </rdf:RDF>
  </metadata>
  <sodipodi:namedview
     pagecolor="#ffffff"
     bordercolor="#666666"
     borderopacity="1"
     objecttolerance="10"
     gridtolerance="10"
     guidetolerance="10"
     inkscape:pageopacity="0"
     inkscape:pageshadow="2"
     inkscape:window-width="1676"
     inkscape:window-height="1030"
     id="namedview4459"
     showgrid="false"
     inkscape:zoom="0.88988608"
     inkscape:cx="215.30348"
     inkscape:cy="183.99296"
     inkscape:window-x="0"
     inkscape:window-y="18"
     inkscape:window-maximized="0"
     inkscape:current-layer="layer2"
     fit-margin-top="20"
     fit-margin-left="20"
     fit-margin-right="20"
     fit-margin-bottom="20"
     showguides="false"
     inkscape:guide-bbox="true"
     inkscape:snap-bbox="true"
     inkscape:snap-to-guides="true"
     inkscape:snap-global="false"
     inkscape:bbox-paths="true"
     inkscape:object-paths="true"
     inkscape:object-nodes="true">
    <sodipodi:guide
       position="587.829,37.667756"
       orientation="0,1"
       id="guide4885" />
  </sodipodi:namedview>
  <defs
     id="defs4447">
    <style
       id="style4449">
      .cls-1 {
        fill: #fff;
      }

      .cls-1, .cls-2, .cls-3 {
        fill-rule: evenodd;
      }

      .cls-2 {
        fill: #795548;
      }

      .cls-3 {
        fill: #5d4037;
      }
    </style>
  </defs>
  <g
     inkscape:groupmode="layer"
     id="layer1"
     inkscape:label="text outline"
     style="display:none"
     transform="translate(20.351,22.028)">
    <path
       inkscape:connector-curvature="0"
       d="m 561.102,87.684 c -3.585,5.959 -8.425,8.938 -14.522,8.938 -6.099,0 -10.927,-2.979 -14.488,-8.938 -3.56,-5.958 -5.341,-14.148 -5.341,-24.57 0,-10.421 1.781,-18.622 5.341,-24.605 3.561,-5.982 8.389,-8.973 14.488,-8.973 6.097,0 10.937,2.991 14.522,8.973 3.584,5.983 5.376,14.184 5.376,24.605 0,10.422 -1.792,18.612 -5.376,24.57 z M 546.476,40.191 c -5.517,0 -8.275,7.641 -8.275,22.923 0,15.236 2.851,22.853 8.552,22.853 5.516,0 8.275,-7.617 8.275,-22.853 0,-15.282 -2.851,-22.923 -8.552,-22.923 z m -43.743,56.431 c -4.096,0 -8.262,-1.729 -12.497,-5.187 l 0,-12.338 c 4.142,4.581 7.82,6.87 11.031,6.87 1.582,0 2.909,-0.514 3.98,-1.542 1.07,-1.028 1.606,-2.337 1.606,-3.926 0,-2.897 -2.107,-7.501 -6.319,-13.81 -4.213,-6.309 -6.854,-10.97 -7.924,-13.985 -1.072,-3.014 -1.606,-5.759 -1.606,-8.236 0,-4.3 1.292,-7.863 3.875,-10.691 2.583,-2.827 5.853,-4.241 9.809,-4.241 3.584,0 7.122,1.356 10.613,4.066 l 0,10.585 c -3.631,-2.99 -6.819,-4.486 -9.565,-4.486 -2.98,0 -4.469,1.589 -4.469,4.767 0,2.663 2.176,7.045 6.528,13.143 4.352,6.099 7.122,10.726 8.309,13.88 1.187,3.155 1.78,6.064 1.78,8.728 0,4.72 -1.443,8.634 -4.329,11.741 -2.886,3.108 -6.493,4.662 -10.822,4.662 z m -35.747,0 c -4.096,0 -8.262,-1.729 -12.497,-5.187 l 0,-12.338 c 4.142,4.581 7.819,6.87 11.031,6.87 1.582,0 2.908,-0.514 3.98,-1.542 1.07,-1.028 1.606,-2.337 1.606,-3.926 0,-2.897 -2.107,-7.501 -6.319,-13.81 -4.213,-6.309 -6.854,-10.97 -7.924,-13.985 -1.072,-3.014 -1.606,-5.759 -1.606,-8.236 0,-4.3 1.291,-7.863 3.875,-10.691 2.583,-2.827 5.852,-4.241 9.809,-4.241 3.584,0 7.122,1.356 10.613,4.066 l 0,10.585 c -3.631,-2.99 -6.82,-4.486 -9.565,-4.486 -2.98,0 -4.469,1.589 -4.469,4.767 0,2.663 2.175,7.045 6.528,13.143 4.352,6.099 7.122,10.726 8.309,13.88 1.187,3.155 1.78,6.064 1.78,8.728 0,4.72 -1.443,8.634 -4.329,11.741 -2.886,3.108 -6.493,4.662 -10.822,4.662 z M 421.814,65.568 c 0,13.786 3.758,20.679 11.274,20.679 4.084,0 7.703,-2.103 10.858,-6.309 l 0,11.076 c -3.957,3.739 -8.308,5.608 -13.056,5.608 -6.423,0 -11.404,-2.897 -14.941,-8.692 -3.538,-5.795 -5.306,-14.113 -5.306,-24.956 0,-10.561 1.547,-18.775 4.643,-24.64 3.094,-5.865 7.411,-8.798 12.951,-8.798 11.543,0 17.198,12.011 16.966,36.032 l -23.389,0 z m 5.798,-26.218 c -3.959,0 -5.938,5.936 -5.938,17.806 l 12.358,0 c 0,-11.87 -2.141,-17.806 -6.42,-17.806 z m -27.163,2.664 c -3.491,0 -6.365,3.155 -8.623,9.464 -2.258,6.309 -3.386,12.361 -3.386,18.155 l 0,25.237 -11.171,0 0,-63.581 11.171,0 0,17.174 0.28,0 c 2.234,-7.571 4.084,-12.501 5.55,-14.791 1.466,-2.289 3.526,-3.435 6.179,-3.435 2.048,0 3.956,0.631 5.725,1.893 l -0.838,11.496 c -1.536,-1.074 -3.165,-1.612 -4.887,-1.612 z m -53.062,54.608 c -3.631,0 -6.82,-1.869 -9.565,-5.608 l -0.28,0 0,38.135 -11.171,0 0,-97.86 11.171,0 0,4.556 0.28,0 c 2.419,-3.738 5.608,-5.608 9.565,-5.608 5.119,0 9.436,3.202 12.951,9.604 3.514,6.403 5.272,14.465 5.272,24.184 0,9.628 -1.711,17.467 -5.132,23.519 -3.421,6.053 -7.785,9.078 -13.091,9.078 z m -3.142,-55.73 c -1.862,0 -3.445,0.807 -4.748,2.419 -1.303,1.612 -1.955,2.676 -1.955,3.189 l 0,33.719 c 2.56,3.832 5.143,5.748 7.75,5.748 5.911,0 8.867,-7.361 8.867,-22.082 0,-15.328 -3.305,-22.993 -9.914,-22.993 z m -42.589,49.071 -0.28,0 c -2.653,3.925 -6.028,5.888 -10.123,5.888 -4.982,0 -9.206,-2.944 -12.673,-8.833 -3.468,-5.888 -5.201,-13.809 -5.201,-23.764 0,-10 1.721,-18.121 5.167,-24.359 3.444,-6.239 7.865,-9.359 13.265,-9.359 3.77,0 7.052,1.73 9.845,5.188 l 0,-35.752 11.171,0 0,95.898 -11.171,0 0,-4.907 z m 0,-43.472 c -1.484,-4.2 -3.895,-6.3 -7.231,-6.3 -2.967,0 -5.308,2.042 -7.023,6.124 -1.715,4.084 -2.573,9.834 -2.573,17.253 0,14.045 2.989,21.067 8.97,21.067 2.224,0 4.09,-0.886 5.596,-2.659 1.507,-1.773 2.261,-2.893 2.261,-3.36 l 0,-32.125 z m -61.581,19.077 c 0,13.786 3.759,20.679 11.275,20.679 4.083,0 7.703,-2.103 10.858,-6.309 l 0,11.076 c -3.957,3.739 -8.308,5.608 -13.056,5.608 -6.423,0 -11.405,-2.897 -14.941,-8.692 -3.538,-5.795 -5.307,-14.113 -5.307,-24.956 0,-10.561 1.547,-18.775 4.643,-24.64 3.095,-5.865 7.412,-8.798 12.952,-8.798 11.543,0 17.198,12.011 16.966,36.032 l -23.39,0 z m 5.799,-26.218 c -3.959,0 -5.938,5.936 -5.938,17.806 l 12.358,0 c 0,-11.87 -2.141,-17.806 -6.42,-17.806 z m -50.552,26.218 c 0,13.786 3.758,20.679 11.274,20.679 4.084,0 7.703,-2.103 10.858,-6.309 l 0,11.076 c -3.957,3.739 -8.308,5.608 -13.056,5.608 -6.423,0 -11.404,-2.897 -14.941,-8.692 -3.538,-5.795 -5.306,-14.113 -5.306,-24.956 0,-10.561 1.547,-18.775 4.643,-24.64 3.095,-5.865 7.411,-8.798 12.951,-8.798 11.543,0 17.198,12.011 16.966,36.032 l -23.389,0 z M 201.12,39.35 c -3.959,0 -5.938,5.936 -5.938,17.806 l 12.358,0 c 0,-11.87 -2.14,-17.806 -6.42,-17.806 z M 159.086,39 l 16.267,0 0,11.496 -16.267,0 0,44.374 -12.288,0 0,-95.898 29.742,0 0,11.497 -17.454,0 0,28.531 z"
       class="cls-1"
       id="path4457-1-9"
       style="display:inline;fill:#a1a1a1;fill-opacity:1;fill-rule:evenodd;stroke:#2f2f2f;stroke-width:5;stroke-linecap:round;stroke-linejoin:round;stroke-miterlimit:4;stroke-dasharray:none;stroke-opacity:1" />
  </g>
  <g
     inkscape:groupmode="layer"
     id="layer3"
     inkscape:label="background"
     style="display:none"
     transform="translate(-0.14999996,0.5)">
    <path
       inkscape:connector-curvature="0"
       d="m 131.38773,54.279972 -13.922,5.129 c -0.699,0.258 -1.411,0.405 -2.121,0.469 0.607,2.998 0.93,6.098 0.93,9.272 0,25.956 -21.269996,46.996998 -47.506996,46.996998 -26.236,0 -47.505,-21.040998 -47.505,-46.996998 0,-25.956 21.269,-46.997 47.505,-46.997 17.466,0 32.720996,9.331 40.974996,23.222 0.601,-0.44 1.27,-0.81 2.007,-1.081 l 13.922,-5.129 c 4.229,-1.559 8.936,0.562 10.515,4.736 1.578,4.174 -0.57,8.821 -4.799,10.379 z"
       class="cls-1"
       id="path4451-5"
       style="display:inline;fill:#2f2f2f;fill-opacity:1;fill-rule:evenodd;stroke:#2f2f2f;stroke-width:3;stroke-miterlimit:4;stroke-dasharray:none;stroke-opacity:1" />
    <path
       inkscape:connector-curvature="0"
       d="m 581.36573,108.83797 c -3.585,5.959 -8.425,8.938 -14.522,8.938 -6.099,0 -10.927,-2.979 -14.488,-8.938 -3.56,-5.958 -5.341,-14.147998 -5.341,-24.569998 0,-10.421 1.781,-18.622 5.341,-24.605 3.561,-5.982 8.389,-8.973 14.488,-8.973 6.097,0 10.937,2.991 14.522,8.973 3.584,5.983 5.376,14.184 5.376,24.605 0,10.422 -1.792,18.611998 -5.376,24.569998 z m -14.626,-47.492998 c -5.517,0 -8.275,7.641 -8.275,22.923 0,15.235998 2.851,22.852998 8.552,22.852998 5.516,0 8.275,-7.617 8.275,-22.852998 0,-15.282 -2.851,-22.923 -8.552,-22.923 z m -43.743,56.430998 c -4.096,0 -8.262,-1.729 -12.497,-5.187 l 0,-12.338 c 4.142,4.581 7.82,6.87 11.031,6.87 1.582,0 2.909,-0.514 3.98,-1.542 1.07,-1.028 1.606,-2.337 1.606,-3.926 0,-2.897 -2.107,-7.500998 -6.319,-13.809998 -4.213,-6.309 -6.854,-10.97 -7.924,-13.985 -1.072,-3.014 -1.606,-5.759 -1.606,-8.236 0,-4.3 1.292,-7.863 3.875,-10.691 2.583,-2.827 5.853,-4.241 9.809,-4.241 3.584,0 7.122,1.356 10.613,4.066 l 0,10.585 c -3.631,-2.99 -6.819,-4.486 -9.565,-4.486 -2.98,0 -4.469,1.589 -4.469,4.767 0,2.663 2.176,7.045 6.528,13.143 4.352,6.099 7.122,10.726 8.309,13.88 1.187,3.155 1.78,6.063998 1.78,8.727998 0,4.72 -1.443,8.634 -4.329,11.741 -2.886,3.108 -6.493,4.662 -10.822,4.662 z m -35.747,0 c -4.096,0 -8.262,-1.729 -12.497,-5.187 l 0,-12.338 c 4.142,4.581 7.819,6.87 11.031,6.87 1.582,0 2.908,-0.514 3.98,-1.542 1.07,-1.028 1.606,-2.337 1.606,-3.926 0,-2.897 -2.107,-7.500998 -6.319,-13.809998 -4.213,-6.309 -6.854,-10.97 -7.924,-13.985 -1.072,-3.014 -1.606,-5.759 -1.606,-8.236 0,-4.3 1.291,-7.863 3.875,-10.691 2.583,-2.827 5.852,-4.241 9.809,-4.241 3.584,0 7.122,1.356 10.613,4.066 l 0,10.585 c -3.631,-2.99 -6.82,-4.486 -9.565,-4.486 -2.98,0 -4.469,1.589 -4.469,4.767 0,2.663 2.175,7.045 6.528,13.143 4.352,6.099 7.122,10.726 8.309,13.88 1.187,3.155 1.78,6.063998 1.78,8.727998 0,4.72 -1.443,8.634 -4.329,11.741 -2.886,3.108 -6.493,4.662 -10.822,4.662 z m -45.172,-31.053998 c 0,13.785998 3.758,20.678998 11.274,20.678998 4.084,0 7.703,-2.103 10.858,-6.309 l 0,11.076 c -3.957,3.739 -8.308,5.608 -13.056,5.608 -6.423,0 -11.404,-2.897 -14.941,-8.692 -3.538,-5.795 -5.306,-14.112998 -5.306,-24.955998 0,-10.561 1.547,-18.775 4.643,-24.64 3.094,-5.865 7.411,-8.798 12.951,-8.798 11.543,0 17.198,12.011 16.966,36.032 l -23.389,0 z m 5.798,-26.218 c -3.959,0 -5.938,5.936 -5.938,17.806 l 12.358,0 c 0,-11.87 -2.141,-17.806 -6.42,-17.806 z m -27.163,2.664 c -3.491,0 -6.365,3.155 -8.623,9.464 -2.258,6.309 -3.386,12.361 -3.386,18.155 l 0,25.236998 -11.171,0 0,-63.580998 11.171,0 0,17.174 0.28,0 c 2.234,-7.571 4.084,-12.501 5.55,-14.791 1.466,-2.289 3.526,-3.435 6.179,-3.435 2.048,0 3.956,0.631 5.725,1.893 l -0.838,11.496 c -1.536,-1.074 -3.165,-1.612 -4.887,-1.612 z m -53.062,54.607998 c -3.631,0 -6.82,-1.869 -9.565,-5.608 l -0.28,0 0,38.135 -11.171,0 0,-97.859998 11.171,0 0,4.556 0.28,0 c 2.419,-3.738 5.608,-5.608 9.565,-5.608 5.119,0 9.436,3.202 12.951,9.604 3.514,6.403 5.272,14.465 5.272,24.184 0,9.628 -1.711,17.466998 -5.132,23.518998 -3.421,6.053 -7.785,9.078 -13.091,9.078 z m -3.142,-55.729998 c -1.862,0 -3.445,0.807 -4.748,2.419 -1.303,1.612 -1.955,2.676 -1.955,3.189 l 0,33.718998 c 2.56,3.832 5.143,5.748 7.75,5.748 5.911,0 8.867,-7.361 8.867,-22.081998 0,-15.328 -3.305,-22.993 -9.914,-22.993 z m -42.589,49.070998 -0.28,0 c -2.653,3.925 -6.028,5.888 -10.123,5.888 -4.982,0 -9.206,-2.944 -12.673,-8.833 -3.468,-5.888 -5.201,-13.808998 -5.201,-23.763998 0,-10 1.721,-18.121 5.167,-24.359 3.444,-6.239 7.865,-9.359 13.265,-9.359 3.77,0 7.052,1.73 9.845,5.188 l 0,-35.752 11.171,0 0,95.897998 -11.171,0 0,-4.907 z m 0,-43.471998 c -1.484,-4.2 -3.895,-6.3 -7.231,-6.3 -2.967,0 -5.308,2.042 -7.023,6.124 -1.715,4.084 -2.573,9.834 -2.573,17.253 0,14.044998 2.989,21.066998 8.97,21.066998 2.224,0 4.09,-0.886 5.596,-2.659 1.507,-1.773 2.261,-2.893 2.261,-3.36 l 0,-32.124998 z m -61.581,19.077 c 0,13.785998 3.759,20.678998 11.275,20.678998 4.083,0 7.703,-2.103 10.858,-6.309 l 0,11.076 c -3.957,3.739 -8.308,5.608 -13.056,5.608 -6.423,0 -11.405,-2.897 -14.941,-8.692 -3.538,-5.795 -5.307,-14.112998 -5.307,-24.955998 0,-10.561 1.547,-18.775 4.643,-24.64 3.095,-5.865 7.412,-8.798 12.952,-8.798 11.543,0 17.198,12.011 16.966,36.032 l -23.39,0 z m 5.799,-26.218 c -3.959,0 -5.938,5.936 -5.938,17.806 l 12.358,0 c 0,-11.87 -2.141,-17.806 -6.42,-17.806 z m -50.552,26.218 c 0,13.785998 3.758,20.678998 11.274,20.678998 4.084,0 7.703,-2.103 10.858,-6.309 l 0,11.076 c -3.957,3.739 -8.308,5.608 -13.056,5.608 -6.423,0 -11.404,-2.897 -14.941,-8.692 -3.538,-5.795 -5.306,-14.112998 -5.306,-24.955998 0,-10.561 1.547,-18.775 4.643,-24.64 3.095,-5.865 7.411,-8.798 12.951,-8.798 11.543,0 17.198,12.011 16.966,36.032 l -23.389,0 z m 5.798,-26.218 c -3.959,0 -5.938,5.936 -5.938,17.806 l 12.358,0 c 0,-11.87 -2.14,-17.806 -6.42,-17.806 z m -42.034,-0.35 16.267,0 0,11.496 -16.267,0 0,44.373998 -12.288,0 0,-95.897998 29.742,0 0,11.497 -17.454,0 0,28.531 z"
       class="cls-1"
       id="path4457-1-3"
       style="display:inline;fill:#2f2f2f;fill-opacity:1;fill-rule:evenodd;stroke:#2f2f2f;stroke-width:1;stroke-miterlimit:4;stroke-dasharray:none;stroke-opacity:1" />
  </g>
  <g
     inkscape:groupmode="layer"
     id="layer4"
     inkscape:label="background rough"
     style="display:none"
     transform="translate(-0.14999996,0.5)">
    <path
       style="color:#000000;display:inline;overflow:visible;visibility:visible;opacity:1;fill:#000000;fill-opacity:1;fill-rule:evenodd;stroke:none;stroke-width:5;stroke-linecap:round;stroke-linejoin:round;stroke-miterlimit:4;stroke-dasharray:none;stroke-dashoffset:0;stroke-opacity:1;marker:none;enable-background:accumulate"
       d="m 64.332918,4.0882666 c 0,0 38.689722,-6.9512024 54.049722,19.6530964 3.0681,5.314103 9.60833,6.591181 15.71026,4.184587 2.27399,-0.896862 12.31759,-3.91861 12.31759,-9.179528 0,-16.7462959 12.90321,-19.19286385 34.66093,-19.19286385 28.76375,0 46.89455,6.37462995 46.89455,21.58542885 l 0.44489,3.769132 61.61579,-0.09109 c 56.80781,-32.7980057 29.61095,-26.1546853 74.6103,-0.174297 L 581.5731,24.36734 c 33.03996,0 31.45021,104.08238 2.97233,104.08238 l -187.43055,0.37974 c -3.66707,0.007 -26.26498,-0.19045 -26.30638,11.62783 l -0.0568,16.21323 c -0.0805,22.96633 -35.63432,21.38198 -35.73644,0.32469 l -0.0784,-16.16598 c 0.008,-1.09834 1.38064,-8.68037 -7.74811,-8.60891 l -261.380511,2.04615 c -90.843983,0 -79.443778,-130.1782004 -1.475321,-130.1782034 z"
       id="rect5156"
       inkscape:connector-curvature="0"
       sodipodi:nodetypes="cssssccccccsssscccc" />
  </g>
  <g
     inkscape:groupmode="layer"
     id="layer2"
     inkscape:label="all"
     style="display:inline"
     transform="translate(20.351,22.028)">
    <path
       inkscape:connector-curvature="0"
       d="m 111.124,33.126 -13.922,5.129 -2.062933,0.760534 C 95.708578,41.922825 96.011,44.92477 96.011,47.996 c 0,25.956 -21.27,46.997 -47.507,46.997 -26.236,0 -47.505,-21.041 -47.505,-46.997 0,-25.956 21.269,-46.997 47.505,-46.997 17.3492,0 32.516871,9.206619 40.808471,22.943933 L 91.486,23.14 105.408,18.011 c 4.229,-1.559 8.936,0.562 10.515,4.736 1.578,4.174 -0.57,8.821 -4.799,10.379 z"
       class="cls-1"
       id="path4451"
       style="fill:#ffffff;fill-opacity:1;fill-rule:evenodd;stroke:#795548;stroke-width:2.70000005;stroke-miterlimit:4;stroke-dasharray:none;stroke-opacity:1"
       sodipodi:nodetypes="sccssssccccs" />
    <path
       d="m 48.370034,13.346992 c 19.364214,0 35.061704,15.476648 35.061704,34.565974 0,19.090258 -15.69749,34.565042 -35.061704,34.565042 -19.363282,0 -35.060772,-15.474784 -35.060772,-34.565042 0,-19.089326 15.69749,-34.565974 35.060772,-34.565974 z"
       class="cls-2"
       id="path4453"
       inkscape:connector-curvature="0"
       style="fill:#795548;fill-rule:evenodd" />
    <path
       d="m 48.370034,82.478008 c -5.016935,0 -9.784141,-1.046437 -14.099414,-2.917538 -2.711605,-3.829792 -7.210446,-12.446359 -3.424449,-23.839759 5.190254,-15.61549 22.491411,0 31.142456,-15.61549 7.672631,-13.851549 -2.343535,-23.600281 -4.706638,-25.627928 15.047078,3.887566 26.149749,17.382226 26.149749,33.435673 0,19.090258 -15.69749,34.565042 -35.061704,34.565042 z"
       class="cls-3"
       id="path4455"
       inkscape:connector-curvature="0"
       style="fill:#5d4037;fill-rule:evenodd" />
    <rect
       style="color:#000000;display:inline;overflow:visible;visibility:visible;opacity:1;fill:#000000;fill-opacity:0;fill-rule:evenodd;stroke:#31221e;stroke-width:2.80846548;stroke-linecap:butt;stroke-linejoin:miter;stroke-miterlimit:4;stroke-dasharray:none;stroke-dashoffset:0;stroke-opacity:1;marker:none;enable-background:accumulate"
       id="rect4868"
       width="143.83237"
       height="33.770657"
       x="422.13971"
       y="117.77022"
       rx="5.0837255" />
    <path
       inkscape:connector-curvature="0"
       d="m 561.102,87.684 c -3.585,5.959 -8.425,8.938 -14.522,8.938 -6.099,0 -10.927,-2.979 -14.488,-8.938 -3.56,-5.958 -5.341,-14.148 -5.341,-24.57 0,-10.421 1.781,-18.622 5.341,-24.605 3.561,-5.982 8.389,-8.973 14.488,-8.973 6.097,0 10.937,2.991 14.522,8.973 3.584,5.983 5.376,14.184 5.376,24.605 0,10.422 -1.792,18.612 -5.376,24.57 z M 546.476,40.191 c -5.517,0 -8.275,7.641 -8.275,22.923 0,15.236 2.851,22.853 8.552,22.853 5.516,0 8.275,-7.617 8.275,-22.853 0,-15.282 -2.851,-22.923 -8.552,-22.923 z m -43.743,56.431 c -4.096,0 -8.262,-1.729 -12.497,-5.187 l 0,-12.338 c 4.142,4.581 7.82,6.87 11.031,6.87 1.582,0 2.909,-0.514 3.98,-1.542 1.07,-1.028 1.606,-2.337 1.606,-3.926 0,-2.897 -2.107,-7.501 -6.319,-13.81 -4.213,-6.309 -6.854,-10.97 -7.924,-13.985 -1.072,-3.014 -1.606,-5.759 -1.606,-8.236 0,-4.3 1.292,-7.863 3.875,-10.691 2.583,-2.827 5.853,-4.241 9.809,-4.241 3.584,0 7.122,1.356 10.613,4.066 l 0,10.585 c -3.631,-2.99 -6.819,-4.486 -9.565,-4.486 -2.98,0 -4.469,1.589 -4.469,4.767 0,2.663 2.176,7.045 6.528,13.143 4.352,6.099 7.122,10.726 8.309,13.88 1.187,3.155 1.78,6.064 1.78,8.728 0,4.72 -1.443,8.634 -4.329,11.741 -2.886,3.108 -6.493,4.662 -10.822,4.662 z m -35.747,0 c -4.096,0 -8.262,-1.729 -12.497,-5.187 l 0,-12.338 c 4.142,4.581 7.819,6.87 11.031,6.87 1.582,0 2.908,-0.514 3.98,-1.542 1.07,-1.028 1.606,-2.337 1.606,-3.926 0,-2.897 -2.107,-7.501 -6.319,-13.81 -4.213,-6.309 -6.854,-10.97 -7.924,-13.985 -1.072,-3.014 -1.606,-5.759 -1.606,-8.236 0,-4.3 1.291,-7.863 3.875,-10.691 2.583,-2.827 5.852,-4.241 9.809,-4.241 3.584,0 7.122,1.356 10.613,4.066 l 0,10.585 c -3.631,-2.99 -6.82,-4.486 -9.565,-4.486 -2.98,0 -4.469,1.589 -4.469,4.767 0,2.663 2.175,7.045 6.528,13.143 4.352,6.099 7.122,10.726 8.309,13.88 1.187,3.155 1.78,6.064 1.78,8.728 0,4.72 -1.443,8.634 -4.329,11.741 -2.886,3.108 -6.493,4.662 -10.822,4.662 z M 421.814,65.568 c 0,13.786 3.758,20.679 11.274,20.679 4.084,0 7.703,-2.103 10.858,-6.309 l 0,11.076 c -3.957,3.739 -8.308,5.608 -13.056,5.608 -6.423,0 -11.404,-2.897 -14.941,-8.692 -3.538,-5.795 -5.306,-14.113 -5.306,-24.956 0,-10.561 1.547,-18.775 4.643,-24.64 3.094,-5.865 7.411,-8.798 12.951,-8.798 11.543,0 17.198,12.011 16.966,36.032 l -23.389,0 z m 5.798,-26.218 c -3.959,0 -5.938,5.936 -5.938,17.806 l 12.358,0 c 0,-11.87 -2.141,-17.806 -6.42,-17.806 z m -27.163,2.664 c -3.491,0 -6.365,3.155 -8.623,9.464 -2.258,6.309 -3.386,12.361 -3.386,18.155 l 0,25.237 -11.171,0 0,-63.581 11.171,0 0,17.174 0.28,0 c 2.234,-7.571 4.084,-12.501 5.55,-14.791 1.466,-2.289 3.526,-3.435 6.179,-3.435 2.048,0 3.956,0.631 5.725,1.893 l -0.838,11.496 c -1.536,-1.074 -3.165,-1.612 -4.887,-1.612 z m -53.062,54.608 c -3.631,0 -6.82,-1.869 -9.565,-5.608 l -0.28,0 0,38.135 -11.171,0 0,-97.86 11.171,0 0,4.556 0.28,0 c 2.419,-3.738 5.608,-5.608 9.565,-5.608 5.119,0 9.436,3.202 12.951,9.604 3.514,6.403 5.272,14.465 5.272,24.184 0,9.628 -1.711,17.467 -5.132,23.519 -3.421,6.053 -7.785,9.078 -13.091,9.078 z m -3.142,-55.73 c -1.862,0 -3.445,0.807 -4.748,2.419 -1.303,1.612 -1.955,2.676 -1.955,3.189 l 0,33.719 c 2.56,3.832 5.143,5.748 7.75,5.748 5.911,0 8.867,-7.361 8.867,-22.082 0,-15.328 -3.305,-22.993 -9.914,-22.993 z m -42.589,49.071 -0.28,0 c -2.653,3.925 -6.028,5.888 -10.123,5.888 -4.982,0 -9.206,-2.944 -12.673,-8.833 -3.468,-5.888 -5.201,-13.809 -5.201,-23.764 0,-10 1.721,-18.121 5.167,-24.359 3.444,-6.239 7.865,-9.359 13.265,-9.359 3.77,0 7.052,1.73 9.845,5.188 l 0,-35.752 11.171,0 0,95.898 -11.171,0 0,-4.907 z m 0,-43.472 c -1.484,-4.2 -3.895,-6.3 -7.231,-6.3 -2.967,0 -5.308,2.042 -7.023,6.124 -1.715,4.084 -2.573,9.834 -2.573,17.253 0,14.045 2.989,21.067 8.97,21.067 2.224,0 4.09,-0.886 5.596,-2.659 1.507,-1.773 2.261,-2.893 2.261,-3.36 l 0,-32.125 z m -61.581,19.077 c 0,13.786 3.759,20.679 11.275,20.679 4.083,0 7.703,-2.103 10.858,-6.309 l 0,11.076 c -3.957,3.739 -8.308,5.608 -13.056,5.608 -6.423,0 -11.405,-2.897 -14.941,-8.692 -3.538,-5.795 -5.307,-14.113 -5.307,-24.956 0,-10.561 1.547,-18.775 4.643,-24.64 3.095,-5.865 7.412,-8.798 12.952,-8.798 11.543,0 17.198,12.011 16.966,36.032 l -23.39,0 z m 5.799,-26.218 c -3.959,0 -5.938,5.936 -5.938,17.806 l 12.358,0 c 0,-11.87 -2.141,-17.806 -6.42,-17.806 z m -50.552,26.218 c 0,13.786 3.758,20.679 11.274,20.679 4.084,0 7.703,-2.103 10.858,-6.309 l 0,11.076 c -3.957,3.739 -8.308,5.608 -13.056,5.608 -6.423,0 -11.404,-2.897 -14.941,-8.692 -3.538,-5.795 -5.306,-14.113 -5.306,-24.956 0,-10.561 1.547,-18.775 4.643,-24.64 3.095,-5.865 7.411,-8.798 12.951,-8.798 11.543,0 17.198,12.011 16.966,36.032 l -23.389,0 z M 201.12,39.35 c -3.959,0 -5.938,5.936 -5.938,17.806 l 12.358,0 c 0,-11.87 -2.14,-17.806 -6.42,-17.806 z M 159.086,39 l 16.267,0 0,11.496 -16.267,0 0,44.374 -12.288,0 0,-95.898 29.742,0 0,11.497 -17.454,0 0,28.531 z"
       class="cls-1"
       id="path4457-1"
       style="fill:#31221e;fill-opacity:1;fill-rule:evenodd;stroke:#31221e;stroke-width:2;stroke-miterlimit:4;stroke-dasharray:none;stroke-opacity:1" />
    <text
       xml:space="preserve"
       style="font-style:normal;font-variant:normal;font-weight:300;font-stretch:normal;font-size:40px;line-height:125%;font-family:'Alegreya Sans';-inkscape-font-specification:'Alegreya Sans Light';text-align:end;letter-spacing:0px;word-spacing:0px;text-anchor:end;fill:#31221e;fill-opacity:1;stroke:none;stroke-width:1px;stroke-linecap:butt;stroke-linejoin:miter;stroke-opacity:1"
       x="561.43811"
       y="145.23692"
       id="text4772"
       sodipodi:linespacing="125%"><tspan
         sodipodi:role="line"
         id="tspan4774"
         x="561.43811"
         y="145.23692"
         style="font-style:normal;font-variant:normal;font-weight:bold;font-stretch:normal;font-size:30px;font-family:'Roboto Condensed';-inkscape-font-specification:'Roboto Condensed, Bold';text-align:end;text-anchor:end;fill:#31221e;fill-opacity:1">white-label</tspan></text>
  </g>
</svg>
