<svg xmlns="http://www.w3.org/2000/svg" xmlns:xlink="http://www.w3.org/1999/xlink" preserveAspectRatio="xMidYMid" width="567" height="129" viewBox="0 0 567 129">
  <defs>
    <style>
      .cls-1 {
        fill: #fff;
      }

      .cls-1, .cls-2, .cls-3 {
        fill-rule: evenodd;
      }

      .cls-2 {
        fill: #795548;
      }

      .cls-3 {
        fill: #5d4037;
      }
    </style>
  </defs>
  <path d="M111.124,33.126 L97.202,38.255 C96.503,38.513 95.791,38.660 95.081,38.724 C95.688,41.722 96.011,44.822 96.011,47.996 C96.011,73.952 74.741,94.993 48.504,94.993 C22.268,94.993 0.999,73.952 0.999,47.996 C0.999,22.040 22.268,0.999 48.504,0.999 C65.970,0.999 81.225,10.330 89.479,24.221 C90.080,23.781 90.749,23.411 91.486,23.140 L105.408,18.011 C109.637,16.452 114.344,18.573 115.923,22.747 C117.501,26.921 115.353,31.568 111.124,33.126 Z" class="cls-1"/>
  <path d="M48.370,10.818 C69.151,10.818 85.997,27.427 85.997,47.913 C85.997,68.400 69.151,85.007 48.370,85.007 C27.590,85.007 10.744,68.400 10.744,47.913 C10.744,27.427 27.590,10.818 48.370,10.818 Z" class="cls-2"/>
  <path d="M48.370,85.007 C42.986,85.007 37.870,83.884 33.239,81.876 C30.329,77.766 25.501,68.519 29.564,56.292 C35.134,39.534 53.701,56.292 62.985,39.534 C71.219,24.669 60.470,14.207 57.934,12.031 C74.082,16.203 85.997,30.685 85.997,47.913 C85.997,68.400 69.151,85.007 48.370,85.007 Z" class="cls-3"/>
  <path d="M561.102,87.684 C557.517,93.643 552.677,96.622 546.580,96.622 C540.481,96.622 535.653,93.643 532.092,87.684 C528.532,81.726 526.751,73.536 526.751,63.114 C526.751,52.693 528.532,44.492 532.092,38.509 C535.653,32.527 540.481,29.536 546.580,29.536 C552.677,29.536 557.517,32.527 561.102,38.509 C564.686,44.492 566.478,52.693 566.478,63.114 C566.478,73.536 564.686,81.726 561.102,87.684 ZM546.476,40.191 C540.959,40.191 538.201,47.832 538.201,63.114 C538.201,78.350 541.052,85.967 546.753,85.967 C552.269,85.967 555.028,78.350 555.028,63.114 C555.028,47.832 552.177,40.191 546.476,40.191 ZM502.733,96.622 C498.637,96.622 494.471,94.893 490.236,91.435 L490.236,79.097 C494.378,83.678 498.056,85.967 501.267,85.967 C502.849,85.967 504.176,85.453 505.247,84.425 C506.317,83.397 506.853,82.088 506.853,80.499 C506.853,77.602 504.746,72.998 500.534,66.689 C496.321,60.380 493.680,55.719 492.610,52.704 C491.538,49.690 491.004,46.945 491.004,44.468 C491.004,40.168 492.296,36.605 494.879,33.777 C497.462,30.950 500.732,29.536 504.688,29.536 C508.272,29.536 511.810,30.892 515.301,33.602 L515.301,44.187 C511.670,41.197 508.482,39.701 505.736,39.701 C502.756,39.701 501.267,41.290 501.267,44.468 C501.267,47.131 503.443,51.513 507.795,57.611 C512.147,63.710 514.917,68.337 516.104,71.491 C517.291,74.646 517.884,77.555 517.884,80.219 C517.884,84.939 516.441,88.853 513.555,91.960 C510.669,95.068 507.062,96.622 502.733,96.622 ZM466.986,96.622 C462.890,96.622 458.724,94.893 454.489,91.435 L454.489,79.097 C458.631,83.678 462.308,85.967 465.520,85.967 C467.102,85.967 468.428,85.453 469.500,84.425 C470.570,83.397 471.106,82.088 471.106,80.499 C471.106,77.602 468.999,72.998 464.787,66.689 C460.574,60.380 457.933,55.719 456.863,52.704 C455.791,49.690 455.257,46.945 455.257,44.468 C455.257,40.168 456.548,36.605 459.132,33.777 C461.715,30.950 464.984,29.536 468.941,29.536 C472.525,29.536 476.063,30.892 479.554,33.602 L479.554,44.187 C475.923,41.197 472.734,39.701 469.989,39.701 C467.009,39.701 465.520,41.290 465.520,44.468 C465.520,47.131 467.695,51.513 472.048,57.611 C476.400,63.710 479.170,68.337 480.357,71.491 C481.544,74.646 482.137,77.555 482.137,80.219 C482.137,84.939 480.694,88.853 477.808,91.960 C474.922,95.068 471.315,96.622 466.986,96.622 ZM421.814,65.568 C421.814,79.354 425.572,86.247 433.088,86.247 C437.172,86.247 440.791,84.144 443.946,79.938 L443.946,91.014 C439.989,94.753 435.638,96.622 430.890,96.622 C424.467,96.622 419.486,93.725 415.949,87.930 C412.411,82.135 410.643,73.817 410.643,62.974 C410.643,52.413 412.190,44.199 415.286,38.334 C418.380,32.469 422.697,29.536 428.237,29.536 C439.780,29.536 445.435,41.547 445.203,65.568 L421.814,65.568 ZM427.612,39.350 C423.653,39.350 421.674,45.286 421.674,57.156 L434.032,57.156 C434.032,45.286 431.891,39.350 427.612,39.350 ZM400.449,42.014 C396.958,42.014 394.084,45.169 391.826,51.478 C389.568,57.787 388.440,63.839 388.440,69.633 L388.440,94.870 L377.269,94.870 L377.269,31.289 L388.440,31.289 L388.440,48.463 L388.720,48.463 C390.954,40.892 392.804,35.962 394.270,33.672 C395.736,31.383 397.796,30.237 400.449,30.237 C402.497,30.237 404.405,30.868 406.174,32.130 L405.336,43.626 C403.800,42.552 402.171,42.014 400.449,42.014 ZM347.387,96.622 C343.756,96.622 340.567,94.753 337.822,91.014 L337.542,91.014 L337.542,129.149 L326.371,129.149 L326.371,31.289 L337.542,31.289 L337.542,35.845 L337.822,35.845 C340.241,32.107 343.430,30.237 347.387,30.237 C352.506,30.237 356.823,33.439 360.338,39.841 C363.852,46.244 365.610,54.306 365.610,64.025 C365.610,73.653 363.899,81.492 360.478,87.544 C357.057,93.597 352.693,96.622 347.387,96.622 ZM344.245,40.892 C342.383,40.892 340.800,41.699 339.497,43.311 C338.194,44.923 337.542,45.987 337.542,46.500 L337.542,80.219 C340.102,84.051 342.685,85.967 345.292,85.967 C351.203,85.967 354.159,78.606 354.159,63.885 C354.159,48.557 350.854,40.892 344.245,40.892 ZM301.656,89.963 L301.376,89.963 C298.723,93.888 295.348,95.851 291.253,95.851 C286.271,95.851 282.047,92.907 278.580,87.018 C275.112,81.130 273.379,73.209 273.379,63.254 C273.379,53.254 275.100,45.133 278.546,38.895 C281.990,32.656 286.411,29.536 291.811,29.536 C295.581,29.536 298.863,31.266 301.656,34.724 L301.656,-1.028 L312.827,-1.028 L312.827,94.870 L301.656,94.870 L301.656,89.963 ZM301.656,46.491 C300.172,42.291 297.761,40.191 294.425,40.191 C291.458,40.191 289.117,42.233 287.402,46.315 C285.687,50.399 284.829,56.149 284.829,63.568 C284.829,77.613 287.818,84.635 293.799,84.635 C296.023,84.635 297.889,83.749 299.395,81.976 C300.902,80.203 301.656,79.083 301.656,78.616 L301.656,46.491 ZM240.075,65.568 C240.075,79.354 243.834,86.247 251.350,86.247 C255.433,86.247 259.053,84.144 262.208,79.938 L262.208,91.014 C258.251,94.753 253.900,96.622 249.152,96.622 C242.729,96.622 237.747,93.725 234.211,87.930 C230.673,82.135 228.904,73.817 228.904,62.974 C228.904,52.413 230.451,44.199 233.547,38.334 C236.642,32.469 240.959,29.536 246.499,29.536 C258.042,29.536 263.697,41.547 263.465,65.568 L240.075,65.568 ZM245.874,39.350 C241.915,39.350 239.936,45.286 239.936,57.156 L252.294,57.156 C252.294,45.286 250.153,39.350 245.874,39.350 ZM195.322,65.568 C195.322,79.354 199.080,86.247 206.596,86.247 C210.680,86.247 214.299,84.144 217.454,79.938 L217.454,91.014 C213.497,94.753 209.146,96.622 204.398,96.622 C197.975,96.622 192.994,93.725 189.457,87.930 C185.919,82.135 184.151,73.817 184.151,62.974 C184.151,52.413 185.698,44.199 188.794,38.334 C191.889,32.469 196.205,29.536 201.745,29.536 C213.288,29.536 218.943,41.547 218.711,65.568 L195.322,65.568 ZM201.120,39.350 C197.161,39.350 195.182,45.286 195.182,57.156 L207.540,57.156 C207.540,45.286 205.400,39.350 201.120,39.350 ZM159.086,39.000 L175.353,39.000 L175.353,50.496 L159.086,50.496 L159.086,94.870 L146.798,94.870 L146.798,-1.028 L176.540,-1.028 L176.540,10.469 L159.086,10.469 L159.086,39.000 Z" class="cls-1"/>
</svg>
